<svg width="1871" height="470" viewBox="0 0 1871 470" fill="none" xmlns="http://www.w3.org/2000/svg">
<path d="M19.6 282L19.6 265.6H142.8C160.933 265.6 170 256.533 170 238.4L170 189.6C170 171.467 160.933 162.4 142.8 162.4L23.6 162.4L23.6 20L191.6 20V50.4L57.2 50.4L57.2 132L142.4 132C183.2 132 203.6 152.4 203.6 193.2L203.6 234.8C203.6 275.6 183.2 296 142.4 296H37.6L19.6 282ZM262.05 296V252.8H300.85V296H262.05ZM264.45 212L264.45 20H298.05L298.05 212H264.45ZM365.156 296L365.156 -3.8147e-06L397.156 -3.8147e-06V88L477.156 88C517.156 88 537.156 108 537.156 148V236C537.156 276 517.156 296 477.156 296H365.156ZM397.156 268H477.156C495.823 268 505.156 258.667 505.156 240V144C505.156 125.333 495.823 116 477.156 116L397.156 116V268ZM595.569 282V265.6H710.769C728.902 265.6 737.969 256.533 737.969 238.4V193.6C737.969 175.467 728.902 166.4 710.769 166.4H625.169V136H710.769C728.902 136 737.969 126.933 737.969 108.8V77.6C737.969 59.4667 728.902 50.4 710.769 50.4L599.569 50.4V34L617.569 20L710.369 20C751.169 20 771.569 40.4 771.569 81.2V110.4C771.569 121.067 768.235 129.733 761.569 136.4L747.569 150.4L761.569 164.4C768.235 171.067 771.569 179.733 771.569 190.4V234.8C771.569 275.6 751.169 296 710.369 296H613.569L595.569 282ZM827.619 296L827.619 112C836.952 96 854.285 88 879.619 88H919.619L935.619 100V116H884.019C872.819 116 864.685 119.067 859.619 125.2L859.619 296H827.619ZM978.047 296L978.047 88H1090.05C1130.05 88 1150.05 108 1150.05 148V296H1118.05V144C1118.05 125.333 1108.71 116 1090.05 116H1010.05L1010.05 296H978.047ZM1209.22 236V148C1209.22 108 1229.22 88 1269.22 88H1321.22C1361.22 88 1381.22 108 1381.22 148V204.4H1241.22V240C1241.22 258.667 1250.56 268 1269.22 268H1373.22V284L1357.22 296H1269.22C1229.22 296 1209.22 276 1209.22 236ZM1241.22 178.4L1349.22 178.4V144C1349.22 125.333 1339.89 116 1321.22 116H1269.22C1250.56 116 1241.22 125.333 1241.22 144V178.4ZM1440.51 236V20L1472.51 20V88L1548.51 88V116L1472.51 116V240C1472.51 258.667 1481.84 268 1500.51 268H1552.51V284L1536.51 296H1500.51C1460.51 296 1440.51 276 1440.51 236ZM1599.55 296V252.8H1638.35V296H1599.55ZM1601.95 212V20L1635.55 20V212H1601.95ZM1702.66 296V-3.8147e-06L1734.66 -3.8147e-06V194L1831.06 88L1862.26 88L1865.06 94L1790.66 175.2L1870.66 290L1867.86 296H1836.66L1769.46 198.4L1734.66 236V296H1702.66ZM0.88 372.32L0.88 363.2H66.16V372.32H38.56L38.56 446H28.48L28.48 372.32H0.88ZM87.3991 446C75.3191 446 69.2791 439.96 69.2791 427.88C69.2791 415.8 75.3191 409.76 87.3991 409.76H109.359V400.4C109.359 394.8 106.559 392 100.959 392H75.2791V387.2L80.0791 383.6H100.959C112.959 383.6 118.959 389.6 118.959 401.6L118.959 446H87.3991ZM78.8791 429.2C78.8791 434.8 81.6791 437.6 87.2791 437.6H109.359V417.56H87.2791C81.6791 417.56 78.8791 420.36 78.8791 425.96V429.2ZM137.198 428.96L137.198 357.2H146.798L146.798 429.92C146.798 435.44 149.598 438.36 155.198 438.68V446.96C143.198 446.96 137.198 440.96 137.198 428.96ZM168.85 446L168.85 357.2L178.45 357.2L178.45 415.4L207.37 383.6H216.73L217.57 385.4L195.25 409.76L219.25 444.2L218.41 446H209.05L188.89 416.72L178.45 428V446H168.85ZM260.597 371.96V360.68H271.157V371.96H260.597ZM261.077 446V383.6H270.677V446H261.077ZM287.505 442.4V437.6H315.225C320.745 437.6 323.505 434.8 323.505 429.2C323.505 423.52 321.305 420.32 316.905 419.6L302.625 417.2C292.545 415.52 287.505 410.04 287.505 400.76C287.505 389.32 293.505 383.6 305.505 383.6H325.545L330.345 387.2V392H305.385C299.785 392 296.985 394.8 296.985 400.4C296.985 405.44 299.345 408.36 304.065 409.16L318.345 411.56C328.265 413.16 333.225 418.88 333.225 428.72C333.225 440.24 327.145 446 314.985 446H292.305L287.505 442.4ZM377.773 428V401.6C377.773 389.6 383.773 383.6 395.773 383.6H419.293L424.093 387.2V392H395.773C390.173 392 387.373 394.8 387.373 400.4V429.2C387.373 434.8 390.173 437.6 395.773 437.6H424.093V442.4L419.293 446H395.773C383.773 446 377.773 440 377.773 428ZM439.202 446V357.2H448.802V383.6H472.802C484.802 383.6 490.802 389.6 490.802 401.6V446H481.202V400.4C481.202 394.8 478.402 392 472.802 392H448.802V446H439.202ZM508.554 428V401.6C508.554 389.6 514.554 383.6 526.554 383.6L542.154 383.6C554.154 383.6 560.154 389.6 560.154 401.6V418.52L518.154 418.52V429.2C518.154 434.8 520.954 437.6 526.554 437.6L557.754 437.6V442.4L552.954 446H526.554C514.554 446 508.554 440 508.554 428ZM518.154 410.72L550.554 410.72V400.4C550.554 394.8 547.754 392 542.154 392L526.554 392C520.954 392 518.154 394.8 518.154 400.4V410.72ZM593.18 446C581.1 446 575.06 439.96 575.06 427.88C575.06 415.8 581.1 409.76 593.18 409.76H615.14V400.4C615.14 394.8 612.34 392 606.74 392H581.06V387.2L585.86 383.6H606.74C618.74 383.6 624.74 389.6 624.74 401.6V446H593.18ZM584.66 429.2C584.66 434.8 587.46 437.6 593.06 437.6H615.14V417.56H593.06C587.46 417.56 584.66 420.36 584.66 425.96V429.2ZM643.459 470V383.6H677.059C689.059 383.6 695.059 389.6 695.059 401.6V428C695.059 440 689.059 446 677.059 446H653.059V470H643.459ZM653.059 437.6H677.059C682.659 437.6 685.459 434.8 685.459 429.2V400.4C685.459 394.8 682.659 392 677.059 392H653.059V437.6ZM707.543 461L714.263 433.04H723.983L725.063 434.84L714.983 462.8L707.543 461ZM770.903 442.4V437.6H798.623C804.143 437.6 806.903 434.8 806.903 429.2C806.903 423.52 804.703 420.32 800.303 419.6L786.023 417.2C775.943 415.52 770.903 410.04 770.903 400.76C770.903 389.32 776.903 383.6 788.903 383.6H808.943L813.743 387.2V392H788.783C783.183 392 780.383 394.8 780.383 400.4C780.383 405.44 782.743 408.36 787.463 409.16L801.743 411.56C811.663 413.16 816.623 418.88 816.623 428.72C816.623 440.24 810.543 446 798.383 446H775.703L770.903 442.4ZM833.303 446V357.2H842.903V383.6H866.903C878.903 383.6 884.903 389.6 884.903 401.6V446H875.303V400.4C875.303 394.8 872.503 392 866.903 392H842.903V446H833.303ZM902.656 428V401.6C902.656 389.6 908.656 383.6 920.656 383.6H937.456C949.456 383.6 955.456 389.6 955.456 401.6V428C955.456 440 949.456 446 937.456 446H920.656C908.656 446 902.656 440 902.656 428ZM912.256 429.2C912.256 434.8 915.056 437.6 920.656 437.6H937.456C943.056 437.6 945.856 434.8 945.856 429.2V400.4C945.856 394.8 943.056 392 937.456 392H920.656C915.056 392 912.256 394.8 912.256 400.4V429.2ZM966.974 385.28L968.174 383.6H976.094L988.814 437.6H990.494L1005.73 383.6H1016.65L1031.89 437.6H1033.57L1046.41 383.6H1054.21L1055.41 385.28L1040.77 446H1025.41L1011.13 394.64L996.974 446H981.614L966.974 385.28ZM1096.74 446V383.6H1167.54C1179.54 383.6 1185.54 389.6 1185.54 401.6V446H1175.94V400.4C1175.94 394.8 1173.14 392 1167.54 392H1145.94V446H1136.34V392H1106.34V446H1096.74ZM1203.36 428V401.6C1203.36 389.6 1209.36 383.6 1221.36 383.6L1236.96 383.6C1248.96 383.6 1254.96 389.6 1254.96 401.6V418.52L1212.96 418.52V429.2C1212.96 434.8 1215.76 437.6 1221.36 437.6L1252.56 437.6V442.4L1247.76 446H1221.36C1209.36 446 1203.36 440 1203.36 428ZM1212.96 410.72L1245.36 410.72V400.4C1245.36 394.8 1242.56 392 1236.96 392L1221.36 392C1215.76 392 1212.96 394.8 1212.96 400.4V410.72ZM1301.57 428V363.2H1311.17V383.6H1333.97V392H1311.17V429.2C1311.17 434.8 1313.97 437.6 1319.57 437.6H1335.17V442.4L1330.37 446H1319.57C1307.57 446 1301.57 440 1301.57 428ZM1349.05 446V357.2H1358.65V383.6H1382.65C1394.65 383.6 1400.65 389.6 1400.65 401.6V446H1391.05V400.4C1391.05 394.8 1388.25 392 1382.65 392H1358.65V446H1349.05ZM1418.4 428V401.6C1418.4 389.6 1424.4 383.6 1436.4 383.6H1452C1464 383.6 1470 389.6 1470 401.6V418.52H1428V429.2C1428 434.8 1430.8 437.6 1436.4 437.6H1467.6V442.4L1462.8 446H1436.4C1424.4 446 1418.4 440 1418.4 428ZM1428 410.72H1460.4V400.4C1460.4 394.8 1457.6 392 1452 392H1436.4C1430.8 392 1428 394.8 1428 400.4V410.72ZM1516.13 428V401.6C1516.13 389.6 1522.13 383.6 1534.13 383.6H1557.65L1562.45 387.2V392H1534.13C1528.53 392 1525.73 394.8 1525.73 400.4V429.2C1525.73 434.8 1528.53 437.6 1534.13 437.6H1562.45V442.4L1557.65 446H1534.13C1522.13 446 1516.13 440 1516.13 428ZM1576.6 428V401.6C1576.6 389.6 1582.6 383.6 1594.6 383.6H1611.4C1623.4 383.6 1629.4 389.6 1629.4 401.6V428C1629.4 440 1623.4 446 1611.4 446H1594.6C1582.6 446 1576.6 440 1576.6 428ZM1586.2 429.2C1586.2 434.8 1589 437.6 1594.6 437.6H1611.4C1617 437.6 1619.8 434.8 1619.8 429.2V400.4C1619.8 394.8 1617 392 1611.4 392H1594.6C1589 392 1586.2 394.8 1586.2 400.4V429.2ZM1646.68 428V401.6C1646.68 389.6 1652.68 383.6 1664.68 383.6H1688.68V357.2H1698.28V446H1664.68C1652.68 446 1646.68 440 1646.68 428ZM1656.28 429.2C1656.28 434.8 1659.08 437.6 1664.68 437.6H1688.68V392H1664.68C1659.08 392 1656.28 394.8 1656.28 400.4V429.2ZM1716.52 428V401.6C1716.52 389.6 1722.52 383.6 1734.52 383.6H1750.12C1762.12 383.6 1768.12 389.6 1768.12 401.6V418.52H1726.12V429.2C1726.12 434.8 1728.92 437.6 1734.52 437.6H1765.72V442.4L1760.92 446H1734.52C1722.52 446 1716.52 440 1716.52 428ZM1726.12 410.72H1758.52V400.4C1758.52 394.8 1755.72 392 1750.12 392H1734.52C1728.92 392 1726.12 394.8 1726.12 400.4V410.72ZM1786.63 446V433.04H1798.27V446H1786.63Z" fill="#353535"/>
<path d="M19.6 282H14.6V284.445L16.5303 285.947L19.6 282ZM19.6 265.6V260.6H14.6V265.6H19.6ZM23.6 162.4H18.6V167.4H23.6V162.4ZM23.6 20V15H18.6V20H23.6ZM191.6 20H196.6L196.6 15H191.6L191.6 20ZM191.6 50.4V55.4H196.6V50.4H191.6ZM57.2 50.4V45.4H52.2V50.4H57.2ZM57.2 132H52.2V137H57.2V132ZM37.6 296L34.5303 299.947L35.8845 301H37.6V296ZM24.6 282L24.6 265.6H14.6L14.6 282H24.6ZM19.6 270.6H142.8V260.6H19.6V270.6ZM142.8 270.6C152.637 270.6 160.934 268.137 166.736 262.336C172.537 256.534 175 248.237 175 238.4L165 238.4C165 246.696 162.929 252 159.664 255.264C156.4 258.529 151.096 260.6 142.8 260.6V270.6ZM175 238.4L175 189.6L165 189.6L165 238.4L175 238.4ZM175 189.6C175 179.763 172.537 171.466 166.736 165.664C160.934 159.863 152.637 157.4 142.8 157.4V167.4C151.096 167.4 156.4 169.471 159.664 172.736C162.929 176 165 181.304 165 189.6L175 189.6ZM142.8 157.4L23.6 157.4L23.6 167.4L142.8 167.4V157.4ZM28.6 162.4L28.6 20H18.6L18.6 162.4H28.6ZM23.6 25L191.6 25L191.6 15L23.6 15V25ZM186.6 20V50.4H196.6V20H186.6ZM191.6 45.4L57.2 45.4V55.4L191.6 55.4V45.4ZM52.2 50.4L52.2 132H62.2L62.2 50.4H52.2ZM57.2 137L142.4 137V127L57.2 127L57.2 137ZM142.4 137C162.029 137 175.833 141.904 184.764 150.836C193.696 159.767 198.6 173.571 198.6 193.2H208.6C208.6 172.029 203.304 155.233 191.836 143.764C180.367 132.296 163.571 127 142.4 127V137ZM198.6 193.2L198.6 234.8H208.6L208.6 193.2H198.6ZM198.6 234.8C198.6 254.429 193.696 268.233 184.764 277.164C175.833 286.096 162.029 291 142.4 291V301C163.571 301 180.367 295.704 191.836 284.236C203.304 272.767 208.6 255.971 208.6 234.8H198.6ZM142.4 291H37.6V301H142.4V291ZM40.6697 292.053L22.6697 278.053L16.5303 285.947L34.5303 299.947L40.6697 292.053ZM262.05 296H257.05V301H262.05V296ZM262.05 252.8V247.8H257.05V252.8H262.05ZM300.85 252.8H305.85V247.8H300.85V252.8ZM300.85 296V301H305.85V296H300.85ZM264.45 212H259.45V217H264.45V212ZM264.45 20V15H259.45V20H264.45ZM298.05 20H303.05V15H298.05V20ZM298.05 212V217H303.05V212H298.05ZM267.05 296V252.8H257.05V296H267.05ZM262.05 257.8H300.85V247.8H262.05V257.8ZM295.85 252.8V296H305.85V252.8H295.85ZM300.85 291H262.05V301H300.85V291ZM269.45 212L269.45 20H259.45L259.45 212H269.45ZM264.45 25H298.05V15H264.45V25ZM293.05 20L293.05 212H303.05L303.05 20H293.05ZM298.05 207H264.45V217H298.05V207ZM365.156 296H360.156V301H365.156V296ZM365.156 -3.8147e-06V-5H360.156V-3.8147e-06H365.156ZM397.156 -3.8147e-06H402.156V-5H397.156V-3.8147e-06ZM397.156 88H392.156V93H397.156V88ZM397.156 268H392.156V273H397.156V268ZM397.156 116V111H392.156V116H397.156ZM370.156 296L370.156 -3.8147e-06H360.156L360.156 296H370.156ZM365.156 5L397.156 5V-5L365.156 -5V5ZM392.156 -3.8147e-06V88H402.156V-3.8147e-06L392.156 -3.8147e-06ZM397.156 93L477.156 93V83L397.156 83V93ZM477.156 93C496.386 93 509.889 97.8039 518.621 106.536C527.352 115.267 532.156 128.771 532.156 148H542.156C542.156 127.229 536.96 110.733 525.692 99.4645C514.423 88.1961 497.927 83 477.156 83V93ZM532.156 148V236H542.156V148H532.156ZM532.156 236C532.156 255.229 527.352 268.733 518.621 277.464C509.889 286.196 496.386 291 477.156 291V301C497.927 301 514.423 295.804 525.692 284.536C536.96 273.267 542.156 256.771 542.156 236H532.156ZM477.156 291H365.156V301H477.156V291ZM397.156 273H477.156V263H397.156V273ZM477.156 273C487.26 273 495.757 270.471 501.692 264.536C507.627 258.6 510.156 250.104 510.156 240H500.156C500.156 248.563 498.019 254.066 494.621 257.464C491.222 260.863 485.719 263 477.156 263V273ZM510.156 240V144H500.156V240H510.156ZM510.156 144C510.156 133.896 507.627 125.4 501.692 119.464C495.757 113.529 487.26 111 477.156 111V121C485.719 121 491.222 123.137 494.621 126.536C498.019 129.934 500.156 135.437 500.156 144H510.156ZM477.156 111L397.156 111V121L477.156 121V111ZM392.156 116V268H402.156V116H392.156ZM595.569 282H590.569L590.569 284.445L592.499 285.947L595.569 282ZM595.569 265.6V260.6H590.569V265.6H595.569ZM625.169 166.4H620.169V171.4H625.169V166.4ZM625.169 136V131H620.169V136H625.169ZM599.569 50.4H594.569V55.4H599.569V50.4ZM599.569 34L596.499 30.0532L594.569 31.5546V34H599.569ZM617.569 20V15H615.853L614.499 16.0532L617.569 20ZM761.569 136.4L765.104 139.936L765.104 139.936L761.569 136.4ZM747.569 150.4L744.033 146.864L740.498 150.4L744.033 153.936L747.569 150.4ZM761.569 164.4L765.104 160.864L765.104 160.864L761.569 164.4ZM613.569 296L610.499 299.947L611.853 301H613.569V296ZM600.569 282V265.6H590.569V282H600.569ZM595.569 270.6H710.769V260.6H595.569V270.6ZM710.769 270.6C720.606 270.6 728.903 268.137 734.704 262.336C740.506 256.534 742.969 248.237 742.969 238.4H732.969C732.969 246.696 730.898 252 727.633 255.264C724.368 258.529 719.065 260.6 710.769 260.6V270.6ZM742.969 238.4V193.6H732.969V238.4H742.969ZM742.969 193.6C742.969 183.763 740.506 175.466 734.704 169.664C728.903 163.863 720.606 161.4 710.769 161.4V171.4C719.065 171.4 724.368 173.471 727.633 176.736C730.898 180 732.969 185.304 732.969 193.6H742.969ZM710.769 161.4H625.169V171.4H710.769V161.4ZM630.169 166.4V136H620.169V166.4H630.169ZM625.169 141H710.769V131H625.169V141ZM710.769 141C720.606 141 728.903 138.537 734.704 132.736C740.506 126.934 742.969 118.637 742.969 108.8H732.969C732.969 117.096 730.898 122.4 727.633 125.664C724.368 128.929 719.065 131 710.769 131V141ZM742.969 108.8V77.6H732.969V108.8H742.969ZM742.969 77.6C742.969 67.7626 740.506 59.4662 734.704 53.6645C728.903 47.8627 720.606 45.4 710.769 45.4V55.4C719.065 55.4 724.368 57.4706 727.633 60.7355C730.898 64.0005 732.969 69.3041 732.969 77.6H742.969ZM710.769 45.4L599.569 45.4V55.4L710.769 55.4V45.4ZM604.569 50.4V34H594.569V50.4H604.569ZM602.638 37.9467L620.638 23.9467L614.499 16.0532L596.499 30.0532L602.638 37.9467ZM617.569 25L710.369 25V15L617.569 15V25ZM710.369 25C729.998 25 743.802 29.9039 752.733 38.8355C761.665 47.7671 766.569 61.5707 766.569 81.2H776.569C776.569 60.0293 771.273 43.2329 759.804 31.7644C748.336 20.296 731.539 15 710.369 15V25ZM766.569 81.2V110.4H776.569V81.2H766.569ZM766.569 110.4C766.569 119.93 763.636 127.262 758.033 132.864L765.104 139.936C772.835 132.205 776.569 122.203 776.569 110.4H766.569ZM758.033 132.864L744.033 146.864L751.104 153.936L765.104 139.936L758.033 132.864ZM744.033 153.936L758.033 167.936L765.104 160.864L751.104 146.864L744.033 153.936ZM758.033 167.936C763.636 173.538 766.569 180.87 766.569 190.4H776.569C776.569 178.597 772.835 168.595 765.104 160.864L758.033 167.936ZM766.569 190.4V234.8H776.569V190.4H766.569ZM766.569 234.8C766.569 254.429 761.665 268.233 752.733 277.164C743.802 286.096 729.998 291 710.369 291V301C731.539 301 748.336 295.704 759.804 284.236C771.273 272.767 776.569 255.971 776.569 234.8H766.569ZM710.369 291H613.569V301H710.369V291ZM616.638 292.053L598.638 278.053L592.499 285.947L610.499 299.947L616.638 292.053ZM827.619 296H822.619V301H827.619V296ZM827.619 112L823.3 109.481L822.619 110.648V112H827.619ZM919.619 88L922.619 84L921.285 83H919.619V88ZM935.619 100H940.619V97.5L938.619 96L935.619 100ZM935.619 116V121H940.619V116H935.619ZM859.619 125.2L855.764 122.016L854.619 123.402V125.2H859.619ZM859.619 296V301H864.619V296H859.619ZM832.619 296L832.619 112H822.619L822.619 296H832.619ZM831.938 114.519C840.057 100.6 855.328 93 879.619 93V83C853.243 83 833.847 91.4003 823.3 109.481L831.938 114.519ZM879.619 93H919.619V83H879.619V93ZM916.619 92L932.619 104L938.619 96L922.619 84L916.619 92ZM930.619 100V116H940.619V100H930.619ZM935.619 111H884.019V121H935.619V111ZM884.019 111C871.963 111 862.122 114.319 855.764 122.016L863.474 128.384C867.249 123.814 873.675 121 884.019 121V111ZM854.619 125.2L854.619 296H864.619L864.619 125.2H854.619ZM859.619 291H827.619V301H859.619V291ZM978.047 296H973.047V301H978.047V296ZM978.047 88V83H973.047V88H978.047ZM1150.05 296V301H1155.05V296H1150.05ZM1118.05 296H1113.05V301H1118.05V296ZM1010.05 116V111H1005.05V116H1010.05ZM1010.05 296V301H1015.05V296H1010.05ZM983.047 296L983.047 88H973.047L973.047 296H983.047ZM978.047 93H1090.05V83H978.047V93ZM1090.05 93C1109.28 93 1122.78 97.8039 1131.51 106.536C1140.24 115.267 1145.05 128.771 1145.05 148L1155.05 148C1155.05 127.229 1149.85 110.733 1138.58 99.4645C1127.31 88.1961 1110.82 83 1090.05 83V93ZM1145.05 148V296H1155.05V148L1145.05 148ZM1150.05 291H1118.05V301H1150.05V291ZM1123.05 296V144H1113.05V296H1123.05ZM1123.05 144C1123.05 133.896 1120.52 125.4 1114.58 119.464C1108.65 113.529 1100.15 111 1090.05 111V121C1098.61 121 1104.11 123.137 1107.51 126.536C1110.91 129.934 1113.05 135.437 1113.05 144H1123.05ZM1090.05 111H1010.05V121H1090.05V111ZM1005.05 116L1005.05 296H1015.05L1015.05 116H1005.05ZM1010.05 291H978.047V301H1010.05V291ZM1381.22 204.4V209.4H1386.22V204.4H1381.22ZM1241.22 204.4V199.4H1236.22V204.4H1241.22ZM1373.22 268H1378.22V263H1373.22V268ZM1373.22 284L1376.22 288L1378.22 286.5V284H1373.22ZM1357.22 296V301H1358.89L1360.22 300L1357.22 296ZM1241.22 178.4H1236.22V183.4H1241.22V178.4ZM1349.22 178.4V183.4H1354.22V178.4H1349.22ZM1214.22 236V148H1204.22V236H1214.22ZM1214.22 148C1214.22 128.771 1219.03 115.267 1227.76 106.536C1236.49 97.8039 1249.99 93 1269.22 93V83C1248.45 83 1231.95 88.1961 1220.69 99.4645C1209.42 110.733 1204.22 127.229 1204.22 148H1214.22ZM1269.22 93H1321.22V83H1269.22V93ZM1321.22 93C1340.45 93 1353.95 97.8039 1362.69 106.536C1371.42 115.267 1376.22 128.771 1376.22 148H1386.22C1386.22 127.229 1381.03 110.733 1369.76 99.4645C1358.49 88.1961 1341.99 83 1321.22 83V93ZM1376.22 148V204.4H1386.22V148H1376.22ZM1381.22 199.4H1241.22V209.4H1381.22V199.4ZM1236.22 204.4V240H1246.22V204.4H1236.22ZM1236.22 240C1236.22 250.104 1238.75 258.6 1244.69 264.536C1250.62 270.471 1259.12 273 1269.22 273V263C1260.66 263 1255.16 260.863 1251.76 257.464C1248.36 254.066 1246.22 248.563 1246.22 240H1236.22ZM1269.22 273H1373.22V263H1269.22V273ZM1368.22 268V284H1378.22V268H1368.22ZM1370.22 280L1354.22 292L1360.22 300L1376.22 288L1370.22 280ZM1357.22 291H1269.22V301H1357.22V291ZM1269.22 291C1249.99 291 1236.49 286.196 1227.76 277.464C1219.03 268.733 1214.22 255.229 1214.22 236H1204.22C1204.22 256.771 1209.42 273.267 1220.69 284.536C1231.95 295.804 1248.45 301 1269.22 301V291ZM1241.22 183.4L1349.22 183.4V173.4L1241.22 173.4V183.4ZM1354.22 178.4V144H1344.22V178.4H1354.22ZM1354.22 144C1354.22 133.896 1351.69 125.4 1345.76 119.464C1339.82 113.529 1331.33 111 1321.22 111V121C1329.78 121 1335.29 123.137 1338.69 126.536C1342.08 129.934 1344.22 135.437 1344.22 144H1354.22ZM1321.22 111H1269.22V121H1321.22V111ZM1269.22 111C1259.12 111 1250.62 113.529 1244.69 119.464C1238.75 125.4 1236.22 133.896 1236.22 144H1246.22C1246.22 135.437 1248.36 129.934 1251.76 126.536C1255.16 123.137 1260.66 121 1269.22 121V111ZM1236.22 144V178.4H1246.22V144H1236.22ZM1440.51 20V15H1435.51V20H1440.51ZM1472.51 20H1477.51V15H1472.51V20ZM1472.51 88H1467.51V93H1472.51V88ZM1548.51 88H1553.51V83H1548.51V88ZM1548.51 116V121H1553.51V116H1548.51ZM1472.51 116V111H1467.51V116H1472.51ZM1552.51 268H1557.51V263H1552.51V268ZM1552.51 284L1555.51 288L1557.51 286.5V284H1552.51ZM1536.51 296V301H1538.18L1539.51 300L1536.51 296ZM1445.51 236V20H1435.51V236H1445.51ZM1440.51 25L1472.51 25V15L1440.51 15V25ZM1467.51 20V88H1477.51V20H1467.51ZM1472.51 93L1548.51 93V83L1472.51 83V93ZM1543.51 88V116H1553.51V88H1543.51ZM1548.51 111L1472.51 111V121L1548.51 121V111ZM1467.51 116V240H1477.51V116H1467.51ZM1467.51 240C1467.51 250.104 1470.04 258.6 1475.97 264.536C1481.91 270.471 1490.41 273 1500.51 273V263C1491.95 263 1486.44 260.863 1483.04 257.464C1479.65 254.066 1477.51 248.563 1477.51 240H1467.51ZM1500.51 273H1552.51V263H1500.51V273ZM1547.51 268V284H1557.51V268H1547.51ZM1549.51 280L1533.51 292L1539.51 300L1555.51 288L1549.51 280ZM1536.51 291H1500.51V301H1536.51V291ZM1500.51 291C1481.28 291 1467.78 286.196 1459.04 277.464C1450.31 268.733 1445.51 255.229 1445.51 236H1435.51C1435.51 256.771 1440.71 273.267 1451.97 284.536C1463.24 295.804 1479.74 301 1500.51 301V291ZM1599.55 296H1594.55V301H1599.55V296ZM1599.55 252.8V247.8H1594.55V252.8H1599.55ZM1638.35 252.8H1643.35V247.8H1638.35V252.8ZM1638.35 296V301H1643.35V296H1638.35ZM1601.95 212H1596.95V217H1601.95V212ZM1601.95 20V15H1596.95V20H1601.95ZM1635.55 20H1640.55V15H1635.55V20ZM1635.55 212V217H1640.55V212H1635.55ZM1604.55 296V252.8H1594.55V296H1604.55ZM1599.55 257.8H1638.35V247.8H1599.55V257.8ZM1633.35 252.8V296H1643.35V252.8H1633.35ZM1638.35 291H1599.55V301H1638.35V291ZM1606.95 212V20H1596.95V212H1606.95ZM1601.95 25L1635.55 25V15L1601.95 15V25ZM1630.55 20V212H1640.55V20L1630.55 20ZM1635.55 207H1601.95V217H1635.55V207ZM1702.66 296H1697.66V301H1702.66V296ZM1702.66 -3.8147e-06V-5H1697.66V-3.8147e-06H1702.66ZM1734.66 -3.8147e-06H1739.66V-5H1734.66V-3.8147e-06ZM1734.66 194H1729.66V206.929L1738.36 197.364L1734.66 194ZM1831.06 88V83H1828.84L1827.36 84.6359L1831.06 88ZM1862.26 88L1866.79 85.8856L1865.44 83H1862.26V88ZM1865.06 94L1868.74 97.3778L1871 94.9139L1869.59 91.8856L1865.06 94ZM1790.66 175.2L1786.97 171.822L1784.27 174.774L1786.55 178.059L1790.66 175.2ZM1870.66 290L1875.19 292.114L1876.41 289.504L1874.76 287.141L1870.66 290ZM1867.86 296V301H1871.04L1872.39 298.114L1867.86 296ZM1836.66 296L1832.54 298.836L1834.03 301H1836.66V296ZM1769.46 198.4L1773.57 195.564L1770.03 190.418L1765.79 195.004L1769.46 198.4ZM1734.66 236L1730.99 232.604L1729.66 234.041V236H1734.66ZM1734.66 296V301H1739.66V296H1734.66ZM1707.66 296V-3.8147e-06H1697.66V296H1707.66ZM1702.66 5L1734.66 5V-5L1702.66 -5V5ZM1729.66 -3.8147e-06V194H1739.66V-3.8147e-06H1729.66ZM1738.36 197.364L1834.76 91.364L1827.36 84.6359L1730.96 190.636L1738.36 197.364ZM1831.06 93L1862.26 93V83L1831.06 83V93ZM1857.73 90.1144L1860.53 96.1144L1869.59 91.8856L1866.79 85.8856L1857.73 90.1144ZM1861.37 90.6222L1786.97 171.822L1794.34 178.578L1868.74 97.3778L1861.37 90.6222ZM1786.55 178.059L1866.55 292.859L1874.76 287.141L1794.76 172.341L1786.55 178.059ZM1866.13 287.886L1863.33 293.886L1872.39 298.114L1875.19 292.114L1866.13 287.886ZM1867.86 291H1836.66V301H1867.86V291ZM1840.77 293.164L1773.57 195.564L1765.34 201.236L1832.54 298.836L1840.77 293.164ZM1765.79 195.004L1730.99 232.604L1738.33 239.396L1773.13 201.796L1765.79 195.004ZM1729.66 236V296H1739.66V236H1729.66ZM1734.66 291H1702.66V301H1734.66V291ZM0.88 372.32H-4.12L-4.12 377.32H0.88L0.88 372.32ZM0.88 363.2L0.88 358.2H-4.12V363.2H0.88ZM66.16 363.2H71.16V358.2H66.16V363.2ZM66.16 372.32V377.32H71.16V372.32H66.16ZM38.56 372.32V367.32H33.56V372.32H38.56ZM38.56 446V451H43.56V446H38.56ZM28.48 446H23.48L23.48 451H28.48L28.48 446ZM28.48 372.32H33.48V367.32H28.48V372.32ZM5.88 372.32L5.88 363.2H-4.12L-4.12 372.32H5.88ZM0.88 368.2H66.16V358.2H0.88L0.88 368.2ZM61.16 363.2V372.32H71.16V363.2H61.16ZM66.16 367.32H38.56V377.32H66.16V367.32ZM33.56 372.32L33.56 446H43.56L43.56 372.32H33.56ZM38.56 441H28.48L28.48 451H38.56V441ZM33.48 446L33.48 372.32H23.48L23.48 446H33.48ZM28.48 367.32H0.88L0.88 377.32H28.48V367.32ZM109.359 409.76V414.76H114.359V409.76H109.359ZM75.2791 392H70.2791V397H75.2791V392ZM75.2791 387.2L72.2791 383.2L70.2791 384.7V387.2H75.2791ZM80.0791 383.6V378.6H78.4124L77.0791 379.6L80.0791 383.6ZM118.959 446V451H123.959V446H118.959ZM109.359 437.6V442.6H114.359V437.6H109.359ZM109.359 417.56H114.359L114.359 412.56H109.359L109.359 417.56ZM87.3991 441C82.1298 441 79.0962 439.686 77.3446 437.934C75.593 436.183 74.2791 433.149 74.2791 427.88H64.2791C64.2791 434.691 65.9851 440.717 70.2735 445.006C74.5619 449.294 80.5883 451 87.3991 451V441ZM74.2791 427.88C74.2791 422.611 75.593 419.577 77.3446 417.826C79.0962 416.074 82.1298 414.76 87.3991 414.76V404.76C80.5883 404.76 74.5619 406.466 70.2735 410.754C65.9851 415.043 64.2791 421.069 64.2791 427.88H74.2791ZM87.3991 414.76H109.359V404.76H87.3991V414.76ZM114.359 409.76V400.4H104.359V409.76H114.359ZM114.359 400.4C114.359 396.829 113.463 393.233 110.795 390.564C108.126 387.896 104.53 387 100.959 387V397C102.988 397 103.592 397.504 103.724 397.636C103.855 397.767 104.359 398.371 104.359 400.4H114.359ZM100.959 387H75.2791V397H100.959V387ZM80.2791 392V387.2H70.2791V392H80.2791ZM78.2791 391.2L83.0791 387.6L77.0791 379.6L72.2791 383.2L78.2791 391.2ZM80.0791 388.6H100.959V378.6H80.0791V388.6ZM100.959 388.6C106.188 388.6 109.192 389.904 110.924 391.636C112.655 393.367 113.959 396.371 113.959 401.6H123.959C123.959 394.829 122.263 388.833 117.995 384.564C113.726 380.296 107.73 378.6 100.959 378.6V388.6ZM113.959 401.6L113.959 446H123.959L123.959 401.6H113.959ZM118.959 441H87.3991V451H118.959V441ZM73.8791 429.2C73.8791 432.771 74.7751 436.367 77.4435 439.036C80.1119 441.704 83.7083 442.6 87.2791 442.6V432.6C85.2498 432.6 84.6462 432.096 84.5146 431.964C84.383 431.833 83.8791 431.229 83.8791 429.2H73.8791ZM87.2791 442.6H109.359V432.6H87.2791V442.6ZM114.359 437.6V417.56H104.359V437.6H114.359ZM109.359 412.56H87.2791L87.2791 422.56H109.359L109.359 412.56ZM87.2791 412.56C83.7083 412.56 80.1119 413.456 77.4435 416.124C74.7751 418.793 73.8791 422.389 73.8791 425.96H83.8791C83.8791 423.931 84.383 423.327 84.5146 423.196C84.6462 423.064 85.2498 422.56 87.2791 422.56L87.2791 412.56ZM73.8791 425.96V429.2H83.8791V425.96H73.8791ZM137.198 357.2V352.2H132.198V357.2H137.198ZM146.798 357.2H151.798V352.2H146.798V357.2ZM155.198 438.68H160.198V433.958L155.483 433.688L155.198 438.68ZM155.198 446.96V451.96H160.198V446.96H155.198ZM142.198 428.96L142.198 357.2H132.198L132.198 428.96H142.198ZM137.198 362.2H146.798V352.2H137.198V362.2ZM141.798 357.2L141.798 429.92H151.798L151.798 357.2H141.798ZM141.798 429.92C141.798 433.491 142.713 437.024 145.289 439.711C147.853 442.385 151.343 443.468 154.913 443.672L155.483 433.688C153.454 433.572 152.743 433.035 152.507 432.789C152.284 432.556 151.798 431.869 151.798 429.92H141.798ZM150.198 438.68V446.96H160.198V438.68H150.198ZM155.198 441.96C149.969 441.96 146.965 440.656 145.234 438.924C143.502 437.193 142.198 434.189 142.198 428.96H132.198C132.198 435.731 133.894 441.727 138.163 445.996C142.431 450.264 148.427 451.96 155.198 451.96V441.96ZM168.85 446H163.85V451H168.85V446ZM168.85 357.2V352.2H163.85V357.2H168.85ZM178.45 357.2H183.45V352.2H178.45V357.2ZM178.45 415.4L173.45 415.4V428.329L182.149 418.764L178.45 415.4ZM207.37 383.6V378.6H205.159L203.671 380.236L207.37 383.6ZM216.73 383.6L221.261 381.486L219.914 378.6H216.73V383.6ZM217.57 385.4L221.257 388.778L223.514 386.314L222.101 383.286L217.57 385.4ZM195.25 409.76L191.563 406.382L188.859 409.334L191.148 412.619L195.25 409.76ZM219.25 444.2L223.781 446.314L224.999 443.704L223.352 441.341L219.25 444.2ZM218.41 446V451H221.594L222.941 448.114L218.41 446ZM209.05 446L204.932 448.836L206.422 451H209.05V446ZM188.89 416.72L193.008 413.884L189.465 408.738L185.22 413.324L188.89 416.72ZM178.45 428L174.78 424.604L173.45 426.041V428L178.45 428ZM178.45 446V451H183.45V446H178.45ZM173.85 446L173.85 357.2H163.85L163.85 446H173.85ZM168.85 362.2L178.45 362.2V352.2L168.85 352.2V362.2ZM173.45 357.2L173.45 415.4L183.45 415.4L183.45 357.2L173.45 357.2ZM182.149 418.764L211.069 386.964L203.671 380.236L174.751 412.036L182.149 418.764ZM207.37 388.6H216.73V378.6H207.37V388.6ZM212.199 385.714L213.039 387.514L222.101 383.286L221.261 381.486L212.199 385.714ZM213.883 382.022L191.563 406.382L198.937 413.138L221.257 388.778L213.883 382.022ZM191.148 412.619L215.148 447.059L223.352 441.341L199.352 406.901L191.148 412.619ZM214.719 442.086L213.879 443.886L222.941 448.114L223.781 446.314L214.719 442.086ZM218.41 441H209.05V451H218.41V441ZM213.168 443.164L193.008 413.884L184.772 419.556L204.932 448.836L213.168 443.164ZM185.22 413.324L174.78 424.604L182.12 431.396L192.56 420.116L185.22 413.324ZM173.45 428V446H183.45V428L173.45 428ZM178.45 441L168.85 441V451H178.45V441ZM260.597 371.96H255.597V376.96H260.597V371.96ZM260.597 360.68V355.68H255.597V360.68H260.597ZM271.157 360.68H276.157V355.68H271.157V360.68ZM271.157 371.96V376.96H276.157V371.96H271.157ZM261.077 446H256.077V451H261.077V446ZM261.077 383.6V378.6H256.077V383.6H261.077ZM270.677 383.6H275.677V378.6H270.677V383.6ZM270.677 446V451H275.677V446H270.677ZM265.597 371.96V360.68H255.597V371.96H265.597ZM260.597 365.68H271.157V355.68H260.597V365.68ZM266.157 360.68V371.96H276.157V360.68H266.157ZM271.157 366.96H260.597V376.96H271.157V366.96ZM266.077 446V383.6H256.077V446H266.077ZM261.077 388.6H270.677V378.6H261.077V388.6ZM265.677 383.6V446H275.677V383.6H265.677ZM270.677 441H261.077V451H270.677V441ZM287.505 442.4H282.505V444.9L284.505 446.4L287.505 442.4ZM287.505 437.6V432.6H282.505V437.6H287.505ZM316.905 419.6L316.076 424.531L316.087 424.533L316.097 424.534L316.905 419.6ZM302.625 417.2L303.453 412.269L303.447 412.268L302.625 417.2ZM325.545 383.6L328.545 379.6L327.211 378.6H325.545V383.6ZM330.345 387.2H335.345V384.7L333.345 383.2L330.345 387.2ZM330.345 392V397H335.345V392H330.345ZM304.065 409.16L303.229 414.09L303.236 414.091L304.065 409.16ZM318.345 411.56L317.516 416.491L317.532 416.494L317.549 416.496L318.345 411.56ZM292.305 446L289.305 450L290.638 451H292.305V446ZM292.505 442.4V437.6H282.505V442.4H292.505ZM287.505 442.6H315.225V432.6H287.505V442.6ZM315.225 442.6C318.774 442.6 322.35 441.694 324.996 439.01C327.628 436.339 328.505 432.753 328.505 429.2H318.505C318.505 431.247 318.001 431.861 317.874 431.99C317.759 432.106 317.196 432.6 315.225 432.6V442.6ZM328.505 429.2C328.505 425.793 327.857 422.444 325.975 419.707C323.987 416.815 321.039 415.21 317.712 414.666L316.097 424.534C317.17 424.71 317.523 425.065 317.734 425.373C318.053 425.836 318.505 426.927 318.505 429.2H328.505ZM317.733 414.669L303.453 412.269L301.796 422.131L316.076 424.531L317.733 414.669ZM303.447 412.268C299.101 411.544 296.494 410.108 294.965 408.445C293.489 406.841 292.505 404.469 292.505 400.76H282.505C282.505 406.331 284.04 411.339 287.604 415.215C291.115 419.032 296.068 421.176 301.803 422.132L303.447 412.268ZM292.505 400.76C292.505 395.873 293.774 393.111 295.455 391.509C297.18 389.864 300.217 388.6 305.505 388.6V378.6C298.792 378.6 292.829 380.196 288.555 384.271C284.235 388.389 282.505 394.207 282.505 400.76H292.505ZM305.505 388.6H325.545V378.6H305.505V388.6ZM322.545 387.6L327.345 391.2L333.345 383.2L328.545 379.6L322.545 387.6ZM325.345 387.2V392H335.345V387.2H325.345ZM330.345 387H305.385V397H330.345V387ZM305.385 387C301.814 387 298.218 387.896 295.549 390.564C292.881 393.233 291.985 396.829 291.985 400.4H301.985C301.985 398.371 302.489 397.767 302.62 397.636C302.752 397.504 303.355 397 305.385 397V387ZM291.985 400.4C291.985 403.672 292.754 406.9 294.866 409.513C297.004 412.159 300.008 413.544 303.229 414.09L304.9 404.23C303.401 403.976 302.865 403.501 302.643 403.227C302.395 402.92 301.985 402.168 301.985 400.4H291.985ZM303.236 414.091L317.516 416.491L319.173 406.629L304.893 404.229L303.236 414.091ZM317.549 416.496C321.733 417.171 324.236 418.606 325.727 420.326C327.207 422.032 328.225 424.635 328.225 428.72H338.225C338.225 422.965 336.762 417.788 333.282 413.774C329.814 409.774 324.877 407.549 319.141 406.624L317.549 416.496ZM328.225 428.72C328.225 433.638 326.94 436.426 325.226 438.05C323.461 439.722 320.359 441 314.985 441V451C321.77 451 327.788 449.398 332.103 445.31C336.469 441.174 338.225 435.322 338.225 428.72H328.225ZM314.985 441H292.305V451H314.985V441ZM295.305 442L290.505 438.4L284.505 446.4L289.305 450L295.305 442ZM419.293 383.6L422.293 379.6L420.959 378.6H419.293V383.6ZM424.093 387.2H429.093V384.7L427.093 383.2L424.093 387.2ZM424.093 392V397H429.093V392H424.093ZM424.093 437.6H429.093V432.6H424.093V437.6ZM424.093 442.4L427.093 446.4L429.093 444.9V442.4H424.093ZM419.293 446V451H420.959L422.293 450L419.293 446ZM382.773 428V401.6H372.773V428H382.773ZM382.773 401.6C382.773 396.371 384.077 393.367 385.808 391.636C387.54 389.904 390.544 388.6 395.773 388.6V378.6C389.002 378.6 383.006 380.296 378.737 384.564C374.469 388.833 372.773 394.829 372.773 401.6H382.773ZM395.773 388.6H419.293V378.6H395.773V388.6ZM416.293 387.6L421.093 391.2L427.093 383.2L422.293 379.6L416.293 387.6ZM419.093 387.2V392H429.093V387.2H419.093ZM424.093 387H395.773V397H424.093V387ZM395.773 387C392.202 387 388.606 387.896 385.937 390.564C383.269 393.233 382.373 396.829 382.373 400.4H392.373C392.373 398.371 392.877 397.767 393.008 397.636C393.14 397.504 393.744 397 395.773 397V387ZM382.373 400.4V429.2H392.373V400.4H382.373ZM382.373 429.2C382.373 432.771 383.269 436.367 385.937 439.036C388.606 441.704 392.202 442.6 395.773 442.6V432.6C393.744 432.6 393.14 432.096 393.008 431.964C392.877 431.833 392.373 431.229 392.373 429.2H382.373ZM395.773 442.6H424.093V432.6H395.773V442.6ZM419.093 437.6V442.4H429.093V437.6H419.093ZM421.093 438.4L416.293 442L422.293 450L427.093 446.4L421.093 438.4ZM419.293 441H395.773V451H419.293V441ZM395.773 441C390.544 441 387.54 439.696 385.808 437.964C384.077 436.233 382.773 433.229 382.773 428H372.773C372.773 434.771 374.469 440.767 378.737 445.036C383.006 449.304 389.002 451 395.773 451V441ZM439.202 446H434.202V451H439.202V446ZM439.202 357.2V352.2H434.202V357.2H439.202ZM448.802 357.2H453.802V352.2H448.802V357.2ZM448.802 383.6H443.802V388.6H448.802V383.6ZM490.802 446V451H495.802V446H490.802ZM481.202 446H476.202V451H481.202V446ZM448.802 392V387H443.802V392H448.802ZM448.802 446V451H453.802V446H448.802ZM444.202 446V357.2H434.202V446H444.202ZM439.202 362.2H448.802V352.2H439.202V362.2ZM443.802 357.2V383.6H453.802V357.2H443.802ZM448.802 388.6H472.802V378.6H448.802V388.6ZM472.802 388.6C478.031 388.6 481.034 389.904 482.766 391.636C484.498 393.367 485.802 396.371 485.802 401.6H495.802C495.802 394.829 494.106 388.833 489.837 384.564C485.569 380.296 479.572 378.6 472.802 378.6V388.6ZM485.802 401.6V446H495.802V401.6H485.802ZM490.802 441H481.202V451H490.802V441ZM486.202 446V400.4H476.202V446H486.202ZM486.202 400.4C486.202 396.829 485.305 393.233 482.637 390.564C479.969 387.896 476.372 387 472.802 387V397C474.831 397 475.434 397.504 475.566 397.636C475.698 397.767 476.202 398.371 476.202 400.4H486.202ZM472.802 387H448.802V397H472.802V387ZM443.802 392V446H453.802V392H443.802ZM448.802 441H439.202V451H448.802V441ZM560.154 418.52V423.52H565.154V418.52H560.154ZM518.154 418.52V413.52H513.154V418.52H518.154ZM557.754 437.6H562.754V432.6H557.754V437.6ZM557.754 442.4L560.754 446.4L562.754 444.9V442.4H557.754ZM552.954 446V451H554.621L555.954 450L552.954 446ZM518.154 410.72H513.154V415.72H518.154V410.72ZM550.554 410.72V415.72H555.554V410.72H550.554ZM513.554 428V401.6H503.554V428H513.554ZM513.554 401.6C513.554 396.371 514.858 393.367 516.59 391.636C518.321 389.904 521.325 388.6 526.554 388.6V378.6C519.783 378.6 513.787 380.296 509.519 384.564C505.25 388.833 503.554 394.829 503.554 401.6H513.554ZM526.554 388.6L542.154 388.6V378.6L526.554 378.6V388.6ZM542.154 388.6C547.383 388.6 550.387 389.904 552.119 391.636C553.85 393.367 555.154 396.371 555.154 401.6H565.154C565.154 394.829 563.458 388.833 559.19 384.564C554.921 380.296 548.925 378.6 542.154 378.6V388.6ZM555.154 401.6V418.52H565.154V401.6H555.154ZM560.154 413.52L518.154 413.52V423.52L560.154 423.52V413.52ZM513.154 418.52V429.2H523.154V418.52H513.154ZM513.154 429.2C513.154 432.771 514.05 436.367 516.719 439.036C519.387 441.704 522.983 442.6 526.554 442.6V432.6C524.525 432.6 523.921 432.096 523.79 431.964C523.658 431.833 523.154 431.229 523.154 429.2H513.154ZM526.554 442.6H557.754V432.6L526.554 432.6V442.6ZM552.754 437.6V442.4H562.754V437.6H552.754ZM554.754 438.4L549.954 442L555.954 450L560.754 446.4L554.754 438.4ZM552.954 441L526.554 441V451H552.954V441ZM526.554 441C521.325 441 518.321 439.696 516.59 437.964C514.858 436.233 513.554 433.229 513.554 428H503.554C503.554 434.771 505.25 440.767 509.519 445.036C513.787 449.304 519.783 451 526.554 451V441ZM518.154 415.72L550.554 415.72V405.72L518.154 405.72V415.72ZM555.554 410.72V400.4H545.554V410.72H555.554ZM555.554 400.4C555.554 396.829 554.658 393.233 551.99 390.564C549.321 387.896 545.725 387 542.154 387V397C544.183 397 544.787 397.504 544.919 397.636C545.05 397.767 545.554 398.371 545.554 400.4H555.554ZM542.154 387L526.554 387V397L542.154 397V387ZM526.554 387C522.983 387 519.387 387.896 516.719 390.564C514.05 393.233 513.154 396.829 513.154 400.4H523.154C523.154 398.371 523.658 397.767 523.79 397.636C523.921 397.504 524.525 397 526.554 397V387ZM513.154 400.4V410.72H523.154V400.4H513.154ZM615.14 409.76V414.76H620.14V409.76H615.14ZM581.06 392H576.06V397H581.06V392ZM581.06 387.2L578.06 383.2L576.06 384.7V387.2H581.06ZM585.86 383.6V378.6H584.194L582.86 379.6L585.86 383.6ZM624.74 446V451H629.74V446H624.74ZM615.14 437.6V442.6H620.14V437.6H615.14ZM615.14 417.56H620.14V412.56H615.14V417.56ZM593.18 441C587.911 441 584.877 439.686 583.126 437.934C581.374 436.183 580.06 433.149 580.06 427.88H570.06C570.06 434.691 571.766 440.717 576.055 445.006C580.343 449.294 586.37 451 593.18 451V441ZM580.06 427.88C580.06 422.611 581.374 419.577 583.126 417.826C584.877 416.074 587.911 414.76 593.18 414.76V404.76C586.37 404.76 580.343 406.466 576.055 410.754C571.766 415.043 570.06 421.069 570.06 427.88H580.06ZM593.18 414.76H615.14V404.76H593.18V414.76ZM620.14 409.76V400.4H610.14V409.76H620.14ZM620.14 400.4C620.14 396.829 619.244 393.233 616.576 390.564C613.907 387.896 610.311 387 606.74 387V397C608.77 397 609.373 397.504 609.505 397.636C609.636 397.767 610.14 398.371 610.14 400.4H620.14ZM606.74 387H581.06V397H606.74V387ZM586.06 392V387.2H576.06V392H586.06ZM584.06 391.2L588.86 387.6L582.86 379.6L578.06 383.2L584.06 391.2ZM585.86 388.6H606.74V378.6H585.86V388.6ZM606.74 388.6C611.97 388.6 614.973 389.904 616.705 391.636C618.436 393.367 619.74 396.371 619.74 401.6H629.74C629.74 394.829 628.044 388.833 623.776 384.564C619.507 380.296 613.511 378.6 606.74 378.6V388.6ZM619.74 401.6V446H629.74V401.6H619.74ZM624.74 441H593.18V451H624.74V441ZM579.66 429.2C579.66 432.771 580.556 436.367 583.225 439.036C585.893 441.704 589.49 442.6 593.06 442.6V432.6C591.031 432.6 590.427 432.096 590.296 431.964C590.164 431.833 589.66 431.229 589.66 429.2H579.66ZM593.06 442.6H615.14V432.6H593.06V442.6ZM620.14 437.6V417.56H610.14V437.6H620.14ZM615.14 412.56H593.06V422.56H615.14V412.56ZM593.06 412.56C589.49 412.56 585.893 413.456 583.225 416.124C580.556 418.793 579.66 422.389 579.66 425.96H589.66C589.66 423.931 590.164 423.327 590.296 423.196C590.427 423.064 591.031 422.56 593.06 422.56V412.56ZM579.66 425.96V429.2H589.66V425.96H579.66ZM643.459 470H638.459V475H643.459V470ZM643.459 383.6V378.6H638.459V383.6H643.459ZM653.059 446V441H648.059V446H653.059ZM653.059 470V475H658.059V470H653.059ZM653.059 437.6H648.059V442.6H653.059V437.6ZM653.059 392V387H648.059V392H653.059ZM648.459 470V383.6H638.459V470H648.459ZM643.459 388.6H677.059V378.6H643.459V388.6ZM677.059 388.6C682.289 388.6 685.292 389.904 687.024 391.636C688.755 393.367 690.059 396.371 690.059 401.6H700.059C700.059 394.829 698.363 388.833 694.095 384.564C689.827 380.296 683.83 378.6 677.059 378.6V388.6ZM690.059 401.6V428H700.059V401.6H690.059ZM690.059 428C690.059 433.229 688.755 436.233 687.024 437.964C685.292 439.696 682.289 441 677.059 441V451C683.83 451 689.827 449.304 694.095 445.036C698.363 440.767 700.059 434.771 700.059 428H690.059ZM677.059 441H653.059V451H677.059V441ZM648.059 446V470H658.059V446H648.059ZM653.059 465H643.459V475H653.059V465ZM653.059 442.6H677.059V432.6H653.059V442.6ZM677.059 442.6C680.63 442.6 684.227 441.704 686.895 439.036C689.563 436.367 690.459 432.771 690.459 429.2H680.459C680.459 431.229 679.955 431.833 679.824 431.964C679.692 432.096 679.089 432.6 677.059 432.6V442.6ZM690.459 429.2V400.4H680.459V429.2H690.459ZM690.459 400.4C690.459 396.829 689.563 393.233 686.895 390.564C684.227 387.896 680.63 387 677.059 387V397C679.089 397 679.692 397.504 679.824 397.636C679.955 397.767 680.459 398.371 680.459 400.4H690.459ZM677.059 387H653.059V397H677.059V387ZM648.059 392V437.6H658.059V392H648.059ZM707.543 461L702.682 459.832L701.515 464.686L706.367 465.86L707.543 461ZM714.263 433.04V428.04H710.322L709.402 431.872L714.263 433.04ZM723.983 433.04L728.271 430.468L726.814 428.04H723.983V433.04ZM725.063 434.84L729.767 436.536L730.572 434.303L729.351 432.268L725.063 434.84ZM714.983 462.8L713.807 467.66L718.166 468.714L719.687 464.496L714.983 462.8ZM712.405 462.168L719.125 434.208L709.402 431.872L702.682 459.832L712.405 462.168ZM714.263 438.04H723.983V428.04H714.263V438.04ZM719.696 435.612L720.776 437.412L729.351 432.268L728.271 430.468L719.696 435.612ZM720.359 433.144L710.279 461.104L719.687 464.496L729.767 436.536L720.359 433.144ZM716.159 457.94L708.719 456.14L706.367 465.86L713.807 467.66L716.159 457.94ZM770.903 442.4H765.903V444.9L767.903 446.4L770.903 442.4ZM770.903 437.6V432.6H765.903V437.6H770.903ZM800.303 419.6L799.474 424.531L799.485 424.533L799.496 424.534L800.303 419.6ZM786.023 417.2L786.852 412.269L786.845 412.268L786.023 417.2ZM808.943 383.6L811.943 379.6L810.61 378.6H808.943V383.6ZM813.743 387.2H818.743V384.7L816.743 383.2L813.743 387.2ZM813.743 392V397H818.743V392H813.743ZM787.463 409.16L786.628 414.09L786.634 414.091L787.463 409.16ZM801.743 411.56L800.914 416.491L800.931 416.494L800.947 416.496L801.743 411.56ZM775.703 446L772.703 450L774.036 451H775.703V446ZM775.903 442.4V437.6H765.903V442.4H775.903ZM770.903 442.6H798.623V432.6H770.903V442.6ZM798.623 442.6C802.172 442.6 805.748 441.694 808.394 439.01C811.027 436.339 811.903 432.753 811.903 429.2H801.903C801.903 431.247 801.4 431.861 801.272 431.99C801.158 432.106 800.594 432.6 798.623 432.6V442.6ZM811.903 429.2C811.903 425.793 811.255 422.444 809.373 419.707C807.385 416.815 804.438 415.21 801.111 414.666L799.496 424.534C800.569 424.71 800.921 425.065 801.133 425.373C801.451 425.836 801.903 426.927 801.903 429.2H811.903ZM801.132 414.669L786.852 412.269L785.194 422.131L799.474 424.531L801.132 414.669ZM786.845 412.268C782.499 411.544 779.892 410.108 778.363 408.445C776.888 406.841 775.903 404.469 775.903 400.76H765.903C765.903 406.331 767.439 411.339 771.003 415.215C774.514 419.032 779.467 421.176 785.201 422.132L786.845 412.268ZM775.903 400.76C775.903 395.873 777.173 393.111 778.853 391.509C780.579 389.864 783.616 388.6 788.903 388.6V378.6C782.19 378.6 776.228 380.196 771.953 384.271C767.634 388.389 765.903 394.207 765.903 400.76H775.903ZM788.903 388.6H808.943V378.6H788.903V388.6ZM805.943 387.6L810.743 391.2L816.743 383.2L811.943 379.6L805.943 387.6ZM808.743 387.2V392H818.743V387.2H808.743ZM813.743 387H788.783V397H813.743V387ZM788.783 387C785.212 387 781.616 387.896 778.948 390.564C776.279 393.233 775.383 396.829 775.383 400.4H785.383C785.383 398.371 785.887 397.767 786.019 397.636C786.15 397.504 786.754 397 788.783 397V387ZM775.383 400.4C775.383 403.672 776.153 406.9 778.264 409.513C780.403 412.159 783.407 413.544 786.628 414.09L788.299 404.23C786.8 403.976 786.264 403.501 786.042 403.227C785.794 402.92 785.383 402.168 785.383 400.4H775.383ZM786.634 414.091L800.914 416.491L802.572 406.629L788.292 404.229L786.634 414.091ZM800.947 416.496C805.131 417.171 807.634 418.606 809.126 420.326C810.605 422.032 811.623 424.635 811.623 428.72H821.623C821.623 422.965 820.161 417.788 816.681 413.774C813.212 409.774 808.275 407.549 802.539 406.624L800.947 416.496ZM811.623 428.72C811.623 433.638 810.339 436.426 808.624 438.05C806.86 439.722 803.758 441 798.383 441V451C805.168 451 811.187 449.398 815.502 445.31C819.868 441.174 821.623 435.322 821.623 428.72H811.623ZM798.383 441H775.703V451H798.383V441ZM778.703 442L773.903 438.4L767.903 446.4L772.703 450L778.703 442ZM833.303 446H828.303V451H833.303V446ZM833.303 357.2V352.2H828.303V357.2H833.303ZM842.903 357.2H847.903V352.2H842.903V357.2ZM842.903 383.6H837.903V388.6H842.903V383.6ZM884.903 446V451H889.903V446H884.903ZM875.303 446H870.303V451H875.303V446ZM842.903 392V387H837.903V392H842.903ZM842.903 446V451H847.903V446H842.903ZM838.303 446V357.2H828.303V446H838.303ZM833.303 362.2H842.903V352.2H833.303V362.2ZM837.903 357.2V383.6H847.903V357.2H837.903ZM842.903 388.6H866.903V378.6H842.903V388.6ZM866.903 388.6C872.132 388.6 875.136 389.904 876.868 391.636C878.599 393.367 879.903 396.371 879.903 401.6L889.903 401.6C889.903 394.829 888.207 388.833 883.939 384.564C879.67 380.296 873.674 378.6 866.903 378.6V388.6ZM879.903 401.6V446H889.903V401.6L879.903 401.6ZM884.903 441L875.303 441V451H884.903V441ZM880.303 446V400.4H870.303V446H880.303ZM880.303 400.4C880.303 396.829 879.407 393.233 876.739 390.564C874.07 387.896 870.474 387 866.903 387V397C868.932 397 869.536 397.504 869.668 397.636C869.799 397.767 870.303 398.371 870.303 400.4H880.303ZM866.903 387H842.903V397H866.903V387ZM837.903 392V446H847.903V392H837.903ZM842.903 441H833.303V451H842.903V441ZM907.656 428V401.6H897.656V428H907.656ZM907.656 401.6C907.656 396.371 908.96 393.367 910.691 391.636C912.423 389.904 915.426 388.6 920.656 388.6V378.6C913.885 378.6 907.888 380.296 903.62 384.564C899.352 388.833 897.656 394.829 897.656 401.6H907.656ZM920.656 388.6H937.456V378.6H920.656V388.6ZM937.456 388.6C942.685 388.6 945.688 389.904 947.42 391.636C949.152 393.367 950.456 396.371 950.456 401.6H960.456C960.456 394.829 958.76 388.833 954.491 384.564C950.223 380.296 944.226 378.6 937.456 378.6V388.6ZM950.456 401.6V428H960.456V401.6H950.456ZM950.456 428C950.456 433.229 949.152 436.233 947.42 437.964C945.688 439.696 942.685 441 937.456 441V451C944.226 451 950.223 449.304 954.491 445.036C958.76 440.767 960.456 434.771 960.456 428H950.456ZM937.456 441H920.656V451H937.456V441ZM920.656 441C915.426 441 912.423 439.696 910.691 437.964C908.96 436.233 907.656 433.229 907.656 428H897.656C897.656 434.771 899.352 440.767 903.62 445.036C907.888 449.304 913.885 451 920.656 451V441ZM907.256 429.2C907.256 432.771 908.152 436.367 910.82 439.036C913.488 441.704 917.085 442.6 920.656 442.6V432.6C918.626 432.6 918.023 432.096 917.891 431.964C917.76 431.833 917.256 431.229 917.256 429.2H907.256ZM920.656 442.6H937.456V432.6H920.656V442.6ZM937.456 442.6C941.026 442.6 944.623 441.704 947.291 439.036C949.96 436.367 950.856 432.771 950.856 429.2H940.856C940.856 431.229 940.352 431.833 940.22 431.964C940.088 432.096 939.485 432.6 937.456 432.6V442.6ZM950.856 429.2V400.4H940.856V429.2H950.856ZM950.856 400.4C950.856 396.829 949.96 393.233 947.291 390.564C944.623 387.896 941.026 387 937.456 387V397C939.485 397 940.088 397.504 940.22 397.636C940.352 397.767 940.856 398.371 940.856 400.4H950.856ZM937.456 387H920.656V397H937.456V387ZM920.656 387C917.085 387 913.488 387.896 910.82 390.564C908.152 393.233 907.256 396.829 907.256 400.4H917.256C917.256 398.371 917.76 397.767 917.891 397.636C918.023 397.504 918.626 397 920.656 397V387ZM907.256 400.4V429.2H917.256V400.4H907.256ZM966.974 385.28L962.905 382.374L961.578 384.232L962.113 386.452L966.974 385.28ZM968.174 383.6V378.6H965.601L964.105 380.694L968.174 383.6ZM976.094 383.6L980.961 382.454L980.053 378.6H976.094V383.6ZM988.814 437.6L983.947 438.746L984.855 442.6H988.814V437.6ZM990.494 437.6V442.6H994.278L995.306 438.958L990.494 437.6ZM1005.73 383.6V378.6H1001.95L1000.92 382.242L1005.73 383.6ZM1016.65 383.6L1021.47 382.242L1020.44 378.6H1016.65V383.6ZM1031.89 437.6L1027.08 438.958L1028.11 442.6H1031.89V437.6ZM1033.57 437.6V442.6H1037.52L1038.44 438.757L1033.57 437.6ZM1046.41 383.6V378.6H1042.46L1041.55 382.443L1046.41 383.6ZM1054.21 383.6L1058.28 380.694L1056.79 378.6H1054.21V383.6ZM1055.41 385.28L1060.27 386.452L1060.81 384.232L1059.48 382.374L1055.41 385.28ZM1040.77 446V451H1044.71L1045.63 447.172L1040.77 446ZM1025.41 446L1020.6 447.339L1021.61 451H1025.41V446ZM1011.13 394.64L1015.95 393.301L1011.11 375.902L1006.31 393.311L1011.13 394.64ZM996.974 446V451H1000.78L1001.79 447.329L996.974 446ZM981.614 446L976.753 447.172L977.676 451H981.614V446ZM971.042 388.186L972.242 386.506L964.105 380.694L962.905 382.374L971.042 388.186ZM968.174 388.6H976.094V378.6H968.174V388.6ZM971.227 384.746L983.947 438.746L993.681 436.454L980.961 382.454L971.227 384.746ZM988.814 442.6H990.494V432.6H988.814V442.6ZM995.306 438.958L1010.55 384.958L1000.92 382.242L985.682 436.242L995.306 438.958ZM1005.73 388.6H1016.65V378.6H1005.73V388.6ZM1011.84 384.958L1027.08 438.958L1036.71 436.242L1021.47 382.242L1011.84 384.958ZM1031.89 442.6H1033.57V432.6H1031.89V442.6ZM1038.44 438.757L1051.28 384.757L1041.55 382.443L1028.71 436.443L1038.44 438.757ZM1046.41 388.6H1054.21V378.6H1046.41V388.6ZM1050.15 386.506L1051.35 388.186L1059.48 382.374L1058.28 380.694L1050.15 386.506ZM1050.55 384.108L1035.91 444.828L1045.63 447.172L1060.27 386.452L1050.55 384.108ZM1040.77 441H1025.41V451H1040.77V441ZM1030.23 444.661L1015.95 393.301L1006.32 395.979L1020.6 447.339L1030.23 444.661ZM1006.31 393.311L992.154 444.671L1001.79 447.329L1015.95 395.969L1006.31 393.311ZM996.974 441H981.614V451H996.974V441ZM986.474 444.828L971.834 384.108L962.113 386.452L976.753 447.172L986.474 444.828ZM1096.74 446H1091.74V451H1096.74V446ZM1096.74 383.6V378.6H1091.74V383.6H1096.74ZM1185.54 446V451H1190.54V446H1185.54ZM1175.94 446H1170.94V451H1175.94V446ZM1145.94 392V387H1140.94V392H1145.94ZM1145.94 446V451H1150.94V446H1145.94ZM1136.34 446H1131.34V451H1136.34V446ZM1136.34 392H1141.34V387H1136.34V392ZM1106.34 392V387H1101.34V392H1106.34ZM1106.34 446V451H1111.34V446H1106.34ZM1101.74 446V383.6H1091.74V446H1101.74ZM1096.74 388.6H1167.54V378.6H1096.74V388.6ZM1167.54 388.6C1172.77 388.6 1175.77 389.904 1177.51 391.636C1179.24 393.367 1180.54 396.371 1180.54 401.6H1190.54C1190.54 394.829 1188.84 388.833 1184.58 384.564C1180.31 380.296 1174.31 378.6 1167.54 378.6V388.6ZM1180.54 401.6V446H1190.54V401.6H1180.54ZM1185.54 441H1175.94V451H1185.54V441ZM1180.94 446V400.4H1170.94V446H1180.94ZM1180.94 400.4C1180.94 396.829 1180.04 393.233 1177.38 390.564C1174.71 387.896 1171.11 387 1167.54 387V397C1169.57 397 1170.17 397.504 1170.31 397.636C1170.44 397.767 1170.94 398.371 1170.94 400.4H1180.94ZM1167.54 387H1145.94V397H1167.54V387ZM1140.94 392V446H1150.94V392H1140.94ZM1145.94 441H1136.34V451H1145.94V441ZM1141.34 446V392H1131.34V446H1141.34ZM1136.34 387H1106.34V397H1136.34V387ZM1101.34 392V446H1111.34V392H1101.34ZM1106.34 441H1096.74V451H1106.34V441ZM1254.96 418.52V423.52H1259.96V418.52H1254.96ZM1212.96 418.52V413.52H1207.96V418.52H1212.96ZM1252.56 437.6H1257.56V432.6H1252.56V437.6ZM1252.56 442.4L1255.56 446.4L1257.56 444.9V442.4H1252.56ZM1247.76 446V451H1249.43L1250.76 450L1247.76 446ZM1212.96 410.72H1207.96V415.72H1212.96V410.72ZM1245.36 410.72V415.72H1250.36V410.72H1245.36ZM1208.36 428V401.6H1198.36V428H1208.36ZM1208.36 401.6C1208.36 396.371 1209.66 393.367 1211.39 391.636C1213.13 389.904 1216.13 388.6 1221.36 388.6V378.6C1214.59 378.6 1208.59 380.296 1204.32 384.564C1200.05 388.833 1198.36 394.829 1198.36 401.6H1208.36ZM1221.36 388.6L1236.96 388.6V378.6L1221.36 378.6V388.6ZM1236.96 388.6C1242.19 388.6 1245.19 389.904 1246.92 391.636C1248.65 393.367 1249.96 396.371 1249.96 401.6H1259.96C1259.96 394.829 1258.26 388.833 1253.99 384.564C1249.73 380.296 1243.73 378.6 1236.96 378.6V388.6ZM1249.96 401.6V418.52H1259.96V401.6H1249.96ZM1254.96 413.52L1212.96 413.52V423.52L1254.96 423.52V413.52ZM1207.96 418.52V429.2H1217.96V418.52H1207.96ZM1207.96 429.2C1207.96 432.771 1208.85 436.367 1211.52 439.036C1214.19 441.704 1217.79 442.6 1221.36 442.6V432.6C1219.33 432.6 1218.73 432.096 1218.59 431.964C1218.46 431.833 1217.96 431.229 1217.96 429.2H1207.96ZM1221.36 442.6H1252.56V432.6L1221.36 432.6V442.6ZM1247.56 437.6V442.4H1257.56V437.6H1247.56ZM1249.56 438.4L1244.76 442L1250.76 450L1255.56 446.4L1249.56 438.4ZM1247.76 441L1221.36 441V451H1247.76V441ZM1221.36 441C1216.13 441 1213.13 439.696 1211.39 437.964C1209.66 436.233 1208.36 433.229 1208.36 428H1198.36C1198.36 434.771 1200.05 440.767 1204.32 445.036C1208.59 449.304 1214.59 451 1221.36 451V441ZM1212.96 415.72L1245.36 415.72V405.72L1212.96 405.72V415.72ZM1250.36 410.72V400.4H1240.36V410.72H1250.36ZM1250.36 400.4C1250.36 396.829 1249.46 393.233 1246.79 390.564C1244.13 387.896 1240.53 387 1236.96 387V397C1238.99 397 1239.59 397.504 1239.72 397.636C1239.85 397.767 1240.36 398.371 1240.36 400.4H1250.36ZM1236.96 387L1221.36 387V397L1236.96 397V387ZM1221.36 387C1217.79 387 1214.19 387.896 1211.52 390.564C1208.85 393.233 1207.96 396.829 1207.96 400.4H1217.96C1217.96 398.371 1218.46 397.767 1218.59 397.636C1218.73 397.504 1219.33 397 1221.36 397V387ZM1207.96 400.4V410.72H1217.96V400.4H1207.96ZM1301.57 363.2V358.2H1296.57V363.2H1301.57ZM1311.17 363.2H1316.17V358.2H1311.17V363.2ZM1311.17 383.6H1306.17V388.6H1311.17V383.6ZM1333.97 383.6H1338.97V378.6H1333.97V383.6ZM1333.97 392V397H1338.97V392H1333.97ZM1311.17 392V387H1306.17V392H1311.17ZM1335.17 437.6H1340.17V432.6H1335.17V437.6ZM1335.17 442.4L1338.17 446.4L1340.17 444.9V442.4H1335.17ZM1330.37 446V451H1332.04L1333.37 450L1330.37 446ZM1306.57 428V363.2H1296.57V428H1306.57ZM1301.57 368.2H1311.17V358.2H1301.57V368.2ZM1306.17 363.2V383.6H1316.17V363.2H1306.17ZM1311.17 388.6H1333.97V378.6H1311.17V388.6ZM1328.97 383.6V392H1338.97V383.6H1328.97ZM1333.97 387H1311.17V397H1333.97V387ZM1306.17 392V429.2H1316.17V392H1306.17ZM1306.17 429.2C1306.17 432.771 1307.07 436.367 1309.74 439.036C1312.41 441.704 1316 442.6 1319.57 442.6V432.6C1317.54 432.6 1316.94 432.096 1316.81 431.964C1316.68 431.833 1316.17 431.229 1316.17 429.2H1306.17ZM1319.57 442.6H1335.17V432.6H1319.57V442.6ZM1330.17 437.6V442.4H1340.17V437.6H1330.17ZM1332.17 438.4L1327.37 442L1333.37 450L1338.17 446.4L1332.17 438.4ZM1330.37 441H1319.57V451H1330.37V441ZM1319.57 441C1314.34 441 1311.34 439.696 1309.61 437.964C1307.88 436.233 1306.57 433.229 1306.57 428H1296.57C1296.57 434.771 1298.27 440.767 1302.54 445.036C1306.81 449.304 1312.8 451 1319.57 451V441ZM1349.05 446H1344.05V451H1349.05V446ZM1349.05 357.2V352.2H1344.05V357.2H1349.05ZM1358.65 357.2H1363.65V352.2H1358.65V357.2ZM1358.65 383.6H1353.65V388.6H1358.65V383.6ZM1400.65 446V451H1405.65V446H1400.65ZM1391.05 446H1386.05V451H1391.05V446ZM1358.65 392V387H1353.65V392H1358.65ZM1358.65 446V451H1363.65V446H1358.65ZM1354.05 446V357.2H1344.05V446H1354.05ZM1349.05 362.2H1358.65V352.2H1349.05V362.2ZM1353.65 357.2V383.6H1363.65V357.2H1353.65ZM1358.65 388.6H1382.65V378.6H1358.65V388.6ZM1382.65 388.6C1387.87 388.6 1390.88 389.904 1392.61 391.636C1394.34 393.367 1395.65 396.371 1395.65 401.6H1405.65C1405.65 394.829 1403.95 388.833 1399.68 384.564C1395.41 380.296 1389.42 378.6 1382.65 378.6V388.6ZM1395.65 401.6V446H1405.65V401.6H1395.65ZM1400.65 441H1391.05V451H1400.65V441ZM1396.05 446V400.4H1386.05V446H1396.05ZM1396.05 400.4C1396.05 396.829 1395.15 393.233 1392.48 390.564C1389.81 387.896 1386.22 387 1382.65 387V397C1384.67 397 1385.28 397.504 1385.41 397.636C1385.54 397.767 1386.05 398.371 1386.05 400.4H1396.05ZM1382.65 387H1358.65V397H1382.65V387ZM1353.65 392V446H1363.65V392H1353.65ZM1358.65 441H1349.05V451H1358.65V441ZM1470 418.52V423.52H1475V418.52H1470ZM1428 418.52V413.52H1423V418.52H1428ZM1467.6 437.6H1472.6V432.6H1467.6V437.6ZM1467.6 442.4L1470.6 446.4L1472.6 444.9V442.4H1467.6ZM1462.8 446V451H1464.46L1465.8 450L1462.8 446ZM1428 410.72H1423V415.72H1428V410.72ZM1460.4 410.72V415.72H1465.4V410.72H1460.4ZM1423.4 428V401.6H1413.4V428H1423.4ZM1423.4 401.6C1423.4 396.371 1424.7 393.367 1426.43 391.636C1428.16 389.904 1431.17 388.6 1436.4 388.6V378.6C1429.63 378.6 1423.63 380.296 1419.36 384.564C1415.09 388.833 1413.4 394.829 1413.4 401.6H1423.4ZM1436.4 388.6H1452V378.6H1436.4V388.6ZM1452 388.6C1457.23 388.6 1460.23 389.904 1461.96 391.636C1463.69 393.367 1465 396.371 1465 401.6H1475C1475 394.829 1473.3 388.833 1469.03 384.564C1464.76 380.296 1458.77 378.6 1452 378.6V388.6ZM1465 401.6V418.52H1475V401.6H1465ZM1470 413.52H1428V423.52H1470V413.52ZM1423 418.52V429.2H1433V418.52H1423ZM1423 429.2C1423 432.771 1423.89 436.367 1426.56 439.036C1429.23 441.704 1432.83 442.6 1436.4 442.6V432.6C1434.37 432.6 1433.76 432.096 1433.63 431.964C1433.5 431.833 1433 431.229 1433 429.2H1423ZM1436.4 442.6H1467.6V432.6H1436.4V442.6ZM1462.6 437.6V442.4H1472.6V437.6H1462.6ZM1464.6 438.4L1459.8 442L1465.8 450L1470.6 446.4L1464.6 438.4ZM1462.8 441H1436.4V451H1462.8V441ZM1436.4 441C1431.17 441 1428.16 439.696 1426.43 437.964C1424.7 436.233 1423.4 433.229 1423.4 428H1413.4C1413.4 434.771 1415.09 440.767 1419.36 445.036C1423.63 449.304 1429.63 451 1436.4 451V441ZM1428 415.72H1460.4V405.72H1428V415.72ZM1465.4 410.72V400.4H1455.4V410.72H1465.4ZM1465.4 400.4C1465.4 396.829 1464.5 393.233 1461.83 390.564C1459.16 387.896 1455.57 387 1452 387V397C1454.03 397 1454.63 397.504 1454.76 397.636C1454.89 397.767 1455.4 398.371 1455.4 400.4H1465.4ZM1452 387H1436.4V397H1452V387ZM1436.4 387C1432.83 387 1429.23 387.896 1426.56 390.564C1423.89 393.233 1423 396.829 1423 400.4H1433C1433 398.371 1433.5 397.767 1433.63 397.636C1433.76 397.504 1434.37 397 1436.4 397V387ZM1423 400.4V410.72H1433V400.4H1423ZM1557.65 383.6L1560.65 379.6L1559.32 378.6H1557.65V383.6ZM1562.45 387.2H1567.45V384.7L1565.45 383.2L1562.45 387.2ZM1562.45 392V397H1567.45V392H1562.45ZM1562.45 437.6H1567.45V432.6H1562.45V437.6ZM1562.45 442.4L1565.45 446.4L1567.45 444.9V442.4H1562.45ZM1557.65 446V451H1559.32L1560.65 450L1557.65 446ZM1521.13 428V401.6H1511.13V428H1521.13ZM1521.13 401.6C1521.13 396.371 1522.44 393.367 1524.17 391.636C1525.9 389.904 1528.9 388.6 1534.13 388.6V378.6C1527.36 378.6 1521.37 380.296 1517.1 384.564C1512.83 388.833 1511.13 394.829 1511.13 401.6H1521.13ZM1534.13 388.6H1557.65V378.6H1534.13V388.6ZM1554.65 387.6L1559.45 391.2L1565.45 383.2L1560.65 379.6L1554.65 387.6ZM1557.45 387.2V392H1567.45V387.2H1557.45ZM1562.45 387H1534.13V397H1562.45V387ZM1534.13 387C1530.56 387 1526.97 387.896 1524.3 390.564C1521.63 393.233 1520.73 396.829 1520.73 400.4H1530.73C1530.73 398.371 1531.24 397.767 1531.37 397.636C1531.5 397.504 1532.1 397 1534.13 397V387ZM1520.73 400.4V429.2H1530.73V400.4H1520.73ZM1520.73 429.2C1520.73 432.771 1521.63 436.367 1524.3 439.036C1526.97 441.704 1530.56 442.6 1534.13 442.6V432.6C1532.1 432.6 1531.5 432.096 1531.37 431.964C1531.24 431.833 1530.73 431.229 1530.73 429.2H1520.73ZM1534.13 442.6H1562.45V432.6H1534.13V442.6ZM1557.45 437.6V442.4H1567.45V437.6H1557.45ZM1559.45 438.4L1554.65 442L1560.65 450L1565.45 446.4L1559.45 438.4ZM1557.65 441H1534.13V451H1557.65V441ZM1534.13 441C1528.9 441 1525.9 439.696 1524.17 437.964C1522.44 436.233 1521.13 433.229 1521.13 428H1511.13C1511.13 434.771 1512.83 440.767 1517.1 445.036C1521.37 449.304 1527.36 451 1534.13 451V441ZM1581.6 428V401.6H1571.6V428H1581.6ZM1581.6 401.6C1581.6 396.371 1582.9 393.367 1584.64 391.636C1586.37 389.904 1589.37 388.6 1594.6 388.6V378.6C1587.83 378.6 1581.83 380.296 1577.57 384.564C1573.3 388.833 1571.6 394.829 1571.6 401.6H1581.6ZM1594.6 388.6H1611.4V378.6H1594.6V388.6ZM1611.4 388.6C1616.63 388.6 1619.63 389.904 1621.37 391.636C1623.1 393.367 1624.4 396.371 1624.4 401.6H1634.4C1634.4 394.829 1632.7 388.833 1628.44 384.564C1624.17 380.296 1618.17 378.6 1611.4 378.6V388.6ZM1624.4 401.6V428H1634.4V401.6H1624.4ZM1624.4 428C1624.4 433.229 1623.1 436.233 1621.37 437.964C1619.63 439.696 1616.63 441 1611.4 441V451C1618.17 451 1624.17 449.304 1628.44 445.036C1632.7 440.767 1634.4 434.771 1634.4 428H1624.4ZM1611.4 441H1594.6V451H1611.4V441ZM1594.6 441C1589.37 441 1586.37 439.696 1584.64 437.964C1582.9 436.233 1581.6 433.229 1581.6 428H1571.6C1571.6 434.771 1573.3 440.767 1577.57 445.036C1581.83 449.304 1587.83 451 1594.6 451V441ZM1581.2 429.2C1581.2 432.771 1582.1 436.367 1584.77 439.036C1587.43 441.704 1591.03 442.6 1594.6 442.6V432.6C1592.57 432.6 1591.97 432.096 1591.84 431.964C1591.7 431.833 1591.2 431.229 1591.2 429.2L1581.2 429.2ZM1594.6 442.6H1611.4V432.6H1594.6V442.6ZM1611.4 442.6C1614.97 442.6 1618.57 441.704 1621.24 439.036C1623.9 436.367 1624.8 432.771 1624.8 429.2H1614.8C1614.8 431.229 1614.3 431.833 1614.17 431.964C1614.03 432.096 1613.43 432.6 1611.4 432.6V442.6ZM1624.8 429.2V400.4H1614.8V429.2H1624.8ZM1624.8 400.4C1624.8 396.829 1623.9 393.233 1621.24 390.564C1618.57 387.896 1614.97 387 1611.4 387V397C1613.43 397 1614.03 397.504 1614.17 397.636C1614.3 397.767 1614.8 398.371 1614.8 400.4H1624.8ZM1611.4 387H1594.6V397H1611.4V387ZM1594.6 387C1591.03 387 1587.43 387.896 1584.77 390.564C1582.1 393.233 1581.2 396.829 1581.2 400.4L1591.2 400.4C1591.2 398.371 1591.7 397.767 1591.84 397.636C1591.97 397.504 1592.57 397 1594.6 397V387ZM1581.2 400.4V429.2L1591.2 429.2V400.4L1581.2 400.4ZM1688.68 383.6V388.6H1693.68V383.6H1688.68ZM1688.68 357.2V352.2H1683.68V357.2H1688.68ZM1698.28 357.2H1703.28V352.2H1698.28V357.2ZM1698.28 446V451H1703.28V446H1698.28ZM1688.68 437.6V442.6H1693.68V437.6H1688.68ZM1688.68 392H1693.68V387H1688.68V392ZM1651.68 428V401.6H1641.68V428H1651.68ZM1651.68 401.6C1651.68 396.371 1652.98 393.367 1654.71 391.636C1656.45 389.904 1659.45 388.6 1664.68 388.6V378.6C1657.91 378.6 1651.91 380.296 1647.64 384.564C1643.38 388.833 1641.68 394.829 1641.68 401.6H1651.68ZM1664.68 388.6H1688.68V378.6H1664.68V388.6ZM1693.68 383.6V357.2H1683.68V383.6H1693.68ZM1688.68 362.2H1698.28V352.2H1688.68V362.2ZM1693.28 357.2V446H1703.28V357.2H1693.28ZM1698.28 441H1664.68V451H1698.28V441ZM1664.68 441C1659.45 441 1656.45 439.696 1654.71 437.964C1652.98 436.233 1651.68 433.229 1651.68 428H1641.68C1641.68 434.771 1643.38 440.767 1647.64 445.036C1651.91 449.304 1657.91 451 1664.68 451V441ZM1651.28 429.2C1651.28 432.771 1652.18 436.367 1654.84 439.036C1657.51 441.704 1661.11 442.6 1664.68 442.6V432.6C1662.65 432.6 1662.05 432.096 1661.91 431.964C1661.78 431.833 1661.28 431.229 1661.28 429.2H1651.28ZM1664.68 442.6H1688.68V432.6H1664.68V442.6ZM1693.68 437.6V392H1683.68V437.6H1693.68ZM1688.68 387H1664.68V397H1688.68V387ZM1664.68 387C1661.11 387 1657.51 387.896 1654.84 390.564C1652.18 393.233 1651.28 396.829 1651.28 400.4H1661.28C1661.28 398.371 1661.78 397.767 1661.91 397.636C1662.05 397.504 1662.65 397 1664.68 397V387ZM1651.28 400.4V429.2H1661.28V400.4H1651.28ZM1768.12 418.52V423.52H1773.12V418.52H1768.12ZM1726.12 418.52V413.52H1721.12V418.52H1726.12ZM1765.72 437.6H1770.72V432.6H1765.72V437.6ZM1765.72 442.4L1768.72 446.4L1770.72 444.9V442.4H1765.72ZM1760.92 446V451H1762.59L1763.92 450L1760.92 446ZM1726.12 410.72H1721.12V415.72H1726.12V410.72ZM1758.52 410.72V415.72H1763.52V410.72H1758.52ZM1721.52 428V401.6H1711.52V428H1721.52ZM1721.52 401.6C1721.52 396.371 1722.83 393.367 1724.56 391.636C1726.29 389.904 1729.29 388.6 1734.52 388.6V378.6C1727.75 378.6 1721.76 380.296 1717.49 384.564C1713.22 388.833 1711.52 394.829 1711.52 401.6H1721.52ZM1734.52 388.6H1750.12V378.6H1734.52V388.6ZM1750.12 388.6C1755.35 388.6 1758.36 389.904 1760.09 391.636C1761.82 393.367 1763.12 396.371 1763.12 401.6H1773.12C1773.12 394.829 1771.43 388.833 1767.16 384.564C1762.89 380.296 1756.89 378.6 1750.12 378.6V388.6ZM1763.12 401.6V418.52H1773.12V401.6H1763.12ZM1768.12 413.52H1726.12V423.52H1768.12V413.52ZM1721.12 418.52V429.2H1731.12V418.52H1721.12ZM1721.12 429.2C1721.12 432.771 1722.02 436.367 1724.69 439.036C1727.36 441.704 1730.95 442.6 1734.52 442.6V432.6C1732.49 432.6 1731.89 432.096 1731.76 431.964C1731.63 431.833 1731.12 431.229 1731.12 429.2H1721.12ZM1734.52 442.6L1765.72 442.6V432.6H1734.52V442.6ZM1760.72 437.6V442.4L1770.72 442.4V437.6H1760.72ZM1762.72 438.4L1757.92 442L1763.92 450L1768.72 446.4L1762.72 438.4ZM1760.92 441H1734.52V451H1760.92V441ZM1734.52 441C1729.29 441 1726.29 439.696 1724.56 437.964C1722.83 436.233 1721.52 433.229 1721.52 428H1711.52C1711.52 434.771 1713.22 440.767 1717.49 445.036C1721.76 449.304 1727.75 451 1734.52 451V441ZM1726.12 415.72H1758.52V405.72H1726.12V415.72ZM1763.52 410.72V400.4H1753.52V410.72H1763.52ZM1763.52 400.4C1763.52 396.829 1762.63 393.233 1759.96 390.564C1757.29 387.896 1753.69 387 1750.12 387V397C1752.15 397 1752.76 397.504 1752.89 397.636C1753.02 397.767 1753.52 398.371 1753.52 400.4H1763.52ZM1750.12 387H1734.52V397H1750.12V387ZM1734.52 387C1730.95 387 1727.36 387.896 1724.69 390.564C1722.02 393.233 1721.12 396.829 1721.12 400.4H1731.12C1731.12 398.371 1731.63 397.767 1731.76 397.636C1731.89 397.504 1732.49 397 1734.52 397V387ZM1721.12 400.4V410.72H1731.12V400.4H1721.12ZM1786.63 446H1781.63V451H1786.63V446ZM1786.63 433.04V428.04H1781.63V433.04H1786.63ZM1798.27 433.04H1803.27V428.04H1798.27V433.04ZM1798.27 446V451H1803.27V446H1798.27ZM1791.63 446V433.04H1781.63V446H1791.63ZM1786.63 438.04H1798.27V428.04H1786.63V438.04ZM1793.27 433.04V446H1803.27V433.04H1793.27ZM1798.27 441H1786.63V451H1798.27V441Z" fill="#353535"/>
</svg>
